<svg xmlns="http://www.w3.org/2000/svg" viewBox="0 0 900 320" width="100%" font-family="system-ui, -apple-system, Segoe UI, Roboto, sans-serif"><rect width="900" height="320" fill="#FFFFFF"/><line x1="64" x2="844" y1="276" y2="276" stroke="#DBDADE" stroke-dasharray="3 3"/><line x1="64" x2="844" y1="192.24251014754205" y2="192.24251014754205" stroke="#DBDADE" stroke-dasharray="3 3"/><line x1="64" x2="844" y1="108.4850202950841" y2="108.4850202950841" stroke="#DBDADE" stroke-dasharray="3 3"/><line x1="64" x2="844" y1="24.72753044262612" y2="24.72753044262612" stroke="#DBDADE" stroke-dasharray="3 3"/><line y1="16" y2="276" x1="64" x2="64" stroke="#DBDADE" stroke-dasharray="3 3"/><line y1="16" y2="276" x1="168" x2="168" stroke="#DBDADE" stroke-dasharray="3 3"/><line y1="16" y2="276" x1="272" x2="272" stroke="#DBDADE" stroke-dasharray="3 3"/><line y1="16" y2="276" x1="376" x2="376" stroke="#DBDADE" stroke-dasharray="3 3"/><line y1="16" y2="276" x1="480" x2="480" stroke="#DBDADE" stroke-dasharray="3 3"/><line y1="16" y2="276" x1="584" x2="584" stroke="#DBDADE" stroke-dasharray="3 3"/><line y1="16" y2="276" x1="688" x2="688" stroke="#DBDADE" stroke-dasharray="3 3"/><line y1="16" y2="276" x1="792" x2="792" stroke="#DBDADE" stroke-dasharray="3 3"/><text x="852" y="276" dominant-baseline="middle" font-size="11" fill="#FDB528">0.00</text><text x="852" y="211" dominant-baseline="middle" font-size="11" fill="#FDB528">0.25</text><text x="852" y="146" dominant-baseline="middle" font-size="11" fill="#FDB528">0.50</text><text x="852" y="81" dominant-baseline="middle" font-size="11" fill="#FDB528">0.75</text><text x="852" y="16" dominant-baseline="middle" font-size="11" fill="#FDB528">1.00</text><line x1="64" x2="844" y1="267.81" y2="267.81" stroke="#FDB528" stroke-dasharray="5 4"/><text x="68" y="262.81" font-size="11" fill="#FDB528">mean H = 0.032</text><rect x="70.5" y="55.21525674892084" width="19.5" height="220.78474325107916" fill="#666CFF"/><rect x="90" y="266.744" width="19.5" height="9.255999999999972" fill="#FDB528"/><rect x="122.5" y="53.37259197216676" width="19.5" height="222.62740802783324" fill="#666CFF"/><rect x="142" y="270.67" width="19.5" height="5.329999999999984" fill="#FDB528"/><rect x="174.5" y="59.905676180658475" width="19.5" height="216.09432381934153" fill="#666CFF"/><rect x="194" y="269.084" width="19.5" height="6.915999999999997" fill="#FDB528"/><rect x="226.5" y="62.58591585593712" width="19.5" height="213.41408414406288" fill="#666CFF"/><rect x="246" y="268.772" width="19.5" height="7.228000000000009" fill="#FDB528"/><rect x="278.5" y="54.54519683010116" width="19.5" height="221.45480316989884" fill="#666CFF"/><rect x="298" y="267.42" width="19.5" height="8.579999999999984" fill="#FDB528"/><rect x="330.5" y="45.499387926035695" width="19.5" height="230.5006120739643" fill="#666CFF"/><rect x="350" y="267.576" width="19.5" height="8.423999999999978" fill="#FDB528"/><rect x="382.5" y="56.722891566265076" width="19.5" height="219.27710843373492" fill="#666CFF"/><rect x="402" y="267.16" width="19.5" height="8.839999999999975" fill="#FDB528"/><rect x="434.5" y="48.347142581019284" width="19.5" height="227.65285741898072" fill="#666CFF"/><rect x="454" y="266.848" width="19.5" height="9.151999999999987" fill="#FDB528"/><rect x="486.5" y="51.194897236002845" width="19.5" height="224.80510276399716" fill="#666CFF"/><rect x="506" y="266.016" width="19.5" height="9.98399999999998" fill="#FDB528"/><rect x="538.5" y="39.636363636363654" width="19.5" height="236.36363636363635" fill="#666CFF"/><rect x="558" y="265.21" width="19.5" height="10.79000000000002" fill="#FDB528"/><rect x="590.5" y="62.25088589652731" width="19.5" height="213.7491141034727" fill="#666CFF"/><rect x="610" y="269.994" width="19.5" height="6.005999999999972" fill="#FDB528"/><rect x="642.5" y="53.20507699246184" width="19.5" height="222.79492300753816" fill="#666CFF"/><rect x="662" y="269.136" width="19.5" height="6.863999999999976" fill="#FDB528"/><rect x="694.5" y="48.179627601314365" width="19.5" height="227.82037239868563" fill="#666CFF"/><rect x="714" y="269.578" width="19.5" height="6.4220000000000255" fill="#FDB528"/><rect x="746.5" y="51.52992719541268" width="19.5" height="224.47007280458732" fill="#666CFF"/><rect x="766" y="265.548" width="19.5" height="10.451999999999998" fill="#FDB528"/><rect x="798.5" y="47.50956768249469" width="19.5" height="228.4904323175053" fill="#666CFF"/><rect x="818" y="267.394" width="19.5" height="8.605999999999995" fill="#FDB528"/><line x1="64" x2="844" y1="276" y2="276" stroke="#DBDADE"/><line x1="64" x2="64" y1="16" y2="276" stroke="#DBDADE"/><text x="56" y="276" text-anchor="end" dominant-baseline="middle" font-size="12" fill="#8592A3">0</text><text x="56" y="192.24251014754205" text-anchor="end" dominant-baseline="middle" font-size="12" fill="#8592A3">500</text><text x="56" y="108.4850202950841" text-anchor="end" dominant-baseline="middle" font-size="12" fill="#8592A3">1.0k</text><text x="56" y="24.72753044262612" text-anchor="end" dominant-baseline="middle" font-size="12" fill="#8592A3">1.5k</text><text x="64" y="294" text-anchor="middle" font-size="12" fill="#8592A3">0</text><text x="168" y="294" text-anchor="middle" font-size="12" fill="#8592A3">2</text><text x="272" y="294" text-anchor="middle" font-size="12" fill="#8592A3">4</text><text x="376" y="294" text-anchor="middle" font-size="12" fill="#8592A3">6</text><text x="480" y="294" text-anchor="middle" font-size="12" fill="#8592A3">8</text><text x="584" y="294" text-anchor="middle" font-size="12" fill="#8592A3">10</text><text x="688" y="294" text-anchor="middle" font-size="12" fill="#8592A3">12</text><text x="792" y="294" text-anchor="middle" font-size="12" fill="#8592A3">14</text><text x="454" y="314" text-anchor="middle" font-size="12" fill="#8592A3">client — A_cifar10_fedavg_dir100_s0</text><text transform="translate(14 146) rotate(-90)" text-anchor="middle" font-size="12" fill="#8592A3">training samples</text></svg>